<svg width="1080" height="1080" xmlns="http://www.w3.org/2000/svg" xml:space="preserve" version="1.1">

 <g>
  <title>Layer 1</title>
  <path stroke-dasharray="5,2,2,2,2,2" stroke="null" id="svg_2" fill="#020202" d="m940.75588,614.47418c-1.29197,-0.6 -2.48455,-1.3 -3.77652,-1.3c-1.88826,0 -3.77652,1.3 -5.06849,3.8c-39.85223,83.4 -71.55512,110.8 -93.71733,119.1c-5.06849,1.3 -10.13698,1.9 -13.9135,1.9l-6.95675,-0.6c-20.87024,-4.5 -27.82699,-29.3 -27.82699,-53.5c0,-8.3 1.29197,-16.6 2.48455,-24.2c5.06849,4.5 11.42894,6.4 17.69002,6.4c34.18745,0 80.40013,-55.4 81.59272,-100.6l0,-1.3c0,-24.2 -19.57828,-36.3 -43.62875,-36.9l-2.48455,0c-46.21268,0 -79.70446,49 -94.90992,89.8c-1.49073,4 -2.7827,8 -4.07467,12.1c-19.08137,43.3 -31.70289,71 -42.13802,87.9c-9.54068,16.6 -15.80176,21.7 -24.05047,22.3c-3.18023,0 -3.77652,-3.8 -3.77652,-11.5c0,-36.9 30.41093,-122.3 39.25594,-166.2l0.59629,-7.6c0,-17.2 -13.3172,-26.7 -29.11896,-26.7c-7.55304,0 -15.80176,1.9 -23.45418,7c-17.69002,12.1 -35.47941,33.8 -48.69724,50.3c-12.62153,16.6 -24.05047,33.8 -34.18745,49c7.55304,-26.8 16.49743,-58.6 18.98198,-72l0.59629,-7.6c0,-17.2 -13.3172,-26.7 -29.11896,-26.7c-7.55304,0 -15.80176,1.9 -23.45418,7c-17.69002,12.1 -36.07571,33.8 -48.69724,50.3c-11.42894,15.3 -22.16221,30.6 -31.60351,45.2c8.84501,-27.4 17.09372,-54.1 27.82699,-80.9l0.59629,-2.5c0,-10.2 -20.87024,-19.1 -36.07571,-19.1c-8.24872,0 -13.9135,2.5 -15.80176,7.6c-10.73327,28 -53.16943,160.5 -53.16943,198.7l0,0.6c0.59629,14.7 20.87024,17.8 36.07571,17.8l4.4722,0c3.77652,0 6.95675,-1.9 6.95675,-6.4c0.59629,-14.6 6.36046,-39.5 14.50979,-67.5c8.84501,-15.9 31.00722,-53.5 55.65398,-86c1.88826,-1.9 18.98198,-24.2 29.71525,-33.1c3.18023,-2.5 5.66478,-3.8 6.95675,-3.8c1.29197,0 1.88826,0.6 1.88826,2.5l-0.59629,4.5c-6.95675,24.2 -35.47941,105.7 -39.85223,149l-0.59629,8.9c0,21 10.13698,31.8 34.18745,31.8l6.95675,0c3.77652,0 6.95675,-1.3 6.95675,-7l0,-1.3c0,-10.2 6.95675,-35.7 14.50979,-65.6c8.84501,-15.9 31.00722,-52.9 56.34966,-86c8.84501,-12.1 18.98198,-23.6 28.52267,-32.5c1.88826,-1.9 4.4722,-4.5 6.36046,-4.5c1.88826,0 2.48455,1.3 2.48455,4.5c-0.59629,7 -36.07571,107.6 -37.96397,150.3l0,5.7c0,31.2 16.49743,36.9 38.56026,36.9l17.69002,-0.6c12.02524,-0.6 21.56592,-7.6 34.18745,-28c6.45984,-10.9 14.01288,-26 23.45418,-46.4c0,0.2 0,0.3 0,0.5c0,40.1 19.57828,72 73.44338,73.9l6.95675,0c6.36046,0 13.9135,-0.6 22.16221,-3.2c25.34244,-8.9 60.12618,-37.6 102.56234,-126.7c0.59629,-1.3 0.59629,-2.5 0.59629,-2.5c0.09938,-2.4 -1.0932,-4.4 -3.08085,-5zm-120.25236,-19.7c6.36046,-8.9 26.53502,-35.7 41.1442,-35.7c1.88826,0 3.18023,0 5.06849,1.3c1.88826,1.3 3.18023,3.2 3.18023,7c0,20.4 -36.07571,76.4 -63.30641,76.4c-3.18023,0 -6.36046,-0.6 -8.84501,-2.5c5.06849,-15.3 13.3172,-31.9 22.7585,-46.5z" class="st0"/>
  <g stroke="null" id="svg_14">
   <path stroke-dasharray="5,2,2,2,2,2" stroke="null" id="svg_15" fill="#020202" d="m434.60277,385.37418c35.18127,-7.7 45.71577,-26.7 45.71577,-48.8c0,-28.5 -16.99434,-50 -62.41197,-50l-20.96963,0l-22.55974,0l-23.25541,0l-19.77704,0l0,17.4l20.07519,2.5c0.39753,27.3 0.49691,54.6 0.49691,81.8l0,9.4c0,27.6 -0.09938,54.8 -0.49691,81.6l-20.07519,2.5l0,17.4l19.77704,0l23.25541,0l22.55974,0l10.63389,0c66.6854,0 83.08345,-32.6 83.08345,-59.7c0,-29.1 -16.0999,-48.6 -56.05151,-54.1zm-28.52267,-80.2c21.06901,0 30.80846,11.5 30.80846,35.4c0,25.6 -10.5345,38.9 -33.19363,38.9l-7.55304,0c0,-25.1 0.09938,-49.9 0.49691,-74.3l9.4413,0zm-0.69567,175.3l-8.84501,0c-0.39753,-27.4 -0.49691,-55.1 -0.49691,-83.8l9.04377,0c26.63441,0 39.35532,12.9 39.35532,42.3c0.09938,27.3 -14.31102,41.5 -39.05717,41.5z" class="st0"/>
   <path stroke-dasharray="5,2,2,2,2,2" stroke="null" id="svg_16" fill="#020202" d="m618.26092,481.07418l-50.28735,0c-0.39753,-27 -0.49691,-54.2 -0.49691,-82.1l29.21834,0l3.08085,25.1l15.60299,0l0,-69.7l-15.50361,0l-3.27961,25.5l-29.01958,0c0,-25.3 0.09938,-50.4 0.49691,-75l44.92072,0l5.36663,37.4l22.36098,0l-1.88826,-55.7l-70.46192,0l-23.25541,0l-23.25541,0l-19.77704,0l0,17.4l20.07519,2.5c0.39753,26.8 0.49691,53.7 0.49691,80.4l0,12c0,27.1 0,54 -0.39753,80.4l-20.17457,2.5l0,17.4l19.77704,0l23.25541,0l23.25541,0l75.72917,0l1.88826,-55.7l-22.36098,0l-5.36663,37.6z" class="st0"/>
   <path stroke-dasharray="5,2,2,2,2,2" stroke="null" id="svg_17" fill="#020202" d="m777.57045,481.07418l-50.28735,0c-0.39753,-27 -0.49691,-54.2 -0.49691,-82.1l29.21834,0l3.08085,25.1l15.50361,0l0,-69.7l-15.50361,0l-3.27961,25.5l-29.01958,0c0,-25.3 0.09938,-50.4 0.49691,-75l44.92072,0l5.36663,37.4l22.36098,0l-1.88826,-55.7l-70.36254,0l-23.25541,0l-23.25541,0l-19.77704,0l0,17.4l20.07519,2.5c0.39753,26.8 0.49691,53.7 0.49691,80.4l0,12c0,27.1 0,54 -0.39753,80.4l-20.17457,2.5l0,17.4l19.77704,0l23.25541,0l23.25541,0l75.72917,0l1.88826,-55.7l-22.36098,0l-5.36663,37.6z" class="st0"/>
   <path stroke-dasharray="5,2,2,2,2,2" stroke="null" id="svg_18" fill="#020202" d="m973.4526,479.07418l-5.16787,-35.9c-4.07467,-30.3 -12.72091,-46.9 -42.93307,-51.7c35.77756,-7 47.8028,-29.4 47.8028,-51.2c0,-33.6 -23.3548,-53.7 -65.49281,-53.7l-21.56592,0l-22.55974,0l-23.25541,0l-19.77704,0l0,17.4l20.07519,2.5c0.39753,26.8 0.49691,53.7 0.49691,80.4l0,12c0,27.1 0,54 -0.39753,80.4l-20.17457,2.5l0,17.4l19.77704,0l45.81515,0l20.5721,0l0,-17.4l-20.87024,-2.6c-0.39753,-25.6 -0.49691,-51.4 -0.49691,-77.7l9.73945,0c16.0999,0 22.65912,9.9 25.34244,31.7l4.96911,37.6c2.68332,25.1 16.0999,33.1 38.85841,33.1c12.32338,0 16.59681,-1.1 29.31772,-4.6l0,-17.4l-20.07519,-2.8zm-77.91558,-95.8l-10.23636,0c0,-26.9 0,-52.7 0.49691,-78.1l10.93203,0c21.86407,0 33.49177,12.5 33.49177,38.6c0.09938,20.8 -8.04995,39.5 -34.68436,39.5z" class="st0"/>
  </g>
 </g>
</svg>