<svg version="1.2" xmlns="http://www.w3.org/2000/svg" viewBox="0 0 1080 1080" width="1080" height="1080"><style>.a{fill:none}.b{fill:#fff}</style><path class="a" d="m0 0h1080v1080h-1080z"/><path fill-rule="evenodd" class="b" d="m823.5 639.6c0 0 0 1.2-0.6 2.5-42.7 89.1-77.7 117.8-103.2 126.7-8.3 2.6-15.9 3.2-22.3 3.2h-7c-54.2-1.9-73.9-33.8-73.9-73.9 0-0.2 0-0.3 0-0.5-9.5 20.4-17.1 35.5-23.6 46.4-12.7 20.4-22.3 27.4-34.4 28l-17.8 0.6c-22.2 0-38.8-5.7-38.8-36.9v-5.7c1.9-42.7 37.6-143.3 38.2-150.3 0-3.2-0.6-4.5-2.5-4.5-1.9 0-4.5 2.6-6.4 4.5-9.6 8.9-19.8 20.4-28.7 32.5-25.5 33.1-47.8 70.1-56.7 86-7.6 29.9-14.6 55.4-14.6 65.6v1.3c0 5.7-3.2 7-7 7h-7c-24.2 0-34.4-10.8-34.4-31.8l0.6-8.9c4.4-43.3 33.1-124.8 40.1-149l0.6-4.5c0-1.9-0.6-2.5-1.9-2.5-1.3 0-3.8 1.3-7 3.8-10.8 8.9-28 31.2-29.9 33.1-24.8 32.5-47.1 70.1-56 86-8.2 28-14 52.9-14.6 67.5 0 4.5-3.2 6.4-7 6.4h-4.5c-15.3 0-35.7-3.1-36.3-17.8v-0.6c0-38.2 42.7-170.7 53.5-198.7 1.9-5.1 7.6-7.6 15.9-7.6 15.3 0 36.3 8.9 36.3 19.1l-0.6 2.5c-10.8 26.8-19.1 53.5-28 80.9 9.5-14.6 20.3-29.9 31.8-45.2 12.7-16.5 31.2-38.2 49-50.3 7.7-5.1 16-7 23.6-7 15.9 0 29.3 9.5 29.3 26.7l-0.6 7.6c-2.5 13.4-11.5 45.2-19.1 72 10.2-15.2 21.7-32.4 34.4-49 13.3-16.5 31.2-38.2 49-50.3 7.7-5.1 16-7 23.6-7 15.9 0 29.3 9.5 29.3 26.7l-0.6 7.6c-8.9 43.9-39.5 129.3-39.5 166.2 0 7.7 0.6 11.5 3.8 11.5 8.3-0.6 14.6-5.7 24.2-22.3 10.5-16.9 23.2-44.6 42.4-87.9 1.3-4.1 2.6-8.1 4.1-12.1 15.3-40.8 49-89.8 95.5-89.8h2.5c24.2 0.6 43.9 12.7 43.9 36.9v1.3c-1.2 45.2-47.7 100.6-82.1 100.6-6.3 0-12.7-1.9-17.8-6.4-1.2 7.6-2.5 15.9-2.5 24.2 0 24.2 7 49 28 53.5l7 0.6c3.8 0 8.9-0.6 14-1.9 22.3-8.3 54.2-35.7 94.3-119.1 1.3-2.5 3.2-3.8 5.1-3.8 1.3 0 2.5 0.7 3.8 1.3 2 0.6 3.2 2.6 3.1 5zm-147 21.8c2.5 1.9 5.7 2.5 8.9 2.5 27.4 0 63.7-56 63.7-76.4 0-3.8-1.3-5.7-3.2-7-1.9-1.3-3.2-1.3-5.1-1.3-14.7 0-35 26.8-41.4 35.7-9.5 14.6-17.8 31.2-22.9 46.5z"/><path fill-rule="evenodd" class="b" d="m367.5 459.6c0 27.1-16.5 59.7-83.6 59.7h-76.7v-17.4l20.2-2.5c0.4-26.8 0.5-54 0.5-81.6v-9.4c0-27.2-0.1-54.5-0.5-81.8l-20.2-2.5v-17.4h87.1c45.7 0 62.8 21.5 62.8 50 0 22.1-10.6 41.1-46 48.8 40.2 5.5 56.4 25 56.4 54.1zm-94.6-134.3c-0.4 24.4-0.5 49.2-0.5 74.3h7.6c22.8 0 33.4-13.3 33.4-38.9 0-23.9-9.8-35.4-31-35.4zm48.1 133.8c0-29.4-12.8-42.3-39.6-42.3h-9.1c0 28.7 0.1 56.4 0.5 83.8h8.9c24.9 0 39.4-14.2 39.3-41.5z"/><path class="b" d="m501.3 463.6h22.5l-1.9 55.7h-76.2-23.4-23.4-19.9v-17.4l20.3-2.5c0.4-26.4 0.4-53.3 0.4-80.4v-12c0-26.7-0.1-53.6-0.5-80.4l-20.2-2.5v-17.4h19.9 23.4 23.4 70.9l1.9 55.7h-22.5l-5.4-37.4h-45.2c-0.4 24.6-0.5 49.7-0.5 75h29.2l3.3-25.5h15.6v69.7h-15.7l-3.1-25.1h-29.4c0 27.9 0.1 55.1 0.5 82.1h50.6z"/><path class="b" d="m661.6 463.6h22.5l-1.9 55.7h-76.2-23.4-23.4-19.9v-17.4l20.3-2.5c0.4-26.4 0.4-53.3 0.4-80.4v-12c0-26.7-0.1-53.6-0.5-80.4l-20.2-2.5v-17.4h19.9 23.4 23.4 70.8l1.9 55.7h-22.5l-5.4-37.4h-45.2c-0.4 24.6-0.5 49.7-0.5 75h29.2l3.3-25.5h15.6v69.7h-15.6l-3.1-25.1h-29.4c0 27.9 0.1 55.1 0.5 82.1h50.6z"/><path fill-rule="evenodd" class="b" d="m873.5 502v17.4c-12.8 3.5-17.1 4.6-29.5 4.6-22.9 0-36.4-8-39.1-33.1l-5-37.6c-2.7-21.8-9.3-31.7-25.5-31.7h-9.8c0 26.3 0.1 52.1 0.5 77.7l21 2.6v17.4h-86.7v-17.4l20.3-2.5c0.4-26.4 0.4-53.3 0.4-80.4v-12c0-26.7-0.1-53.6-0.5-80.4l-20.2-2.5v-17.4h87.7c42.4 0 65.9 20.1 65.9 53.7 0 21.8-12.1 44.2-48.1 51.2 30.4 4.8 39.1 21.4 43.2 51.7l5.2 35.9zm-63.7-138.1c0-26.1-11.7-38.6-33.7-38.6h-11c-0.5 25.4-0.5 51.2-0.5 78.1h10.3c26.8 0 35-18.7 34.9-39.5z"/></svg>
