<svg xmlns="http://www.w3.org/2000/svg" xmlns:xlink="http://www.w3.org/1999/xlink" version="1.1" style="enable-background:new 0 0 1080 1080;" xml:space="preserve" width="1080" height="1080"><rect id="backgroundrect" width="100%" height="100%" x="0" y="0" fill="none" stroke="none"/>
<style type="text/css">
	.st0{fill:#020202;}
</style>

<g class="currentLayer" style=""><title>Layer 1</title>
	<path class="st0" d="M841.4476298332214,646.6428544521332 c-1.3,-0.6000000000000004 -2.5,-1.3 -3.8,-1.3 c-1.9,0 -3.8,1.3 -5.1,3.8 c-40.1,83.4 -72,110.8 -94.3,119.1 c-5.1,1.3 -10.2,1.9 -14,1.9 l-7,-0.6000000000000004 c-21,-4.5 -28,-29.3 -28,-53.5 c0,-8.3 1.3,-16.6 2.5,-24.2 c5.1,4.5 11.5,6.4 17.8,6.4 c34.4,0 80.9,-55.4 82.1,-100.6 v-1.3 c0,-24.2 -19.7,-36.3 -43.9,-36.9 h-2.5 c-46.5,0 -80.2,49 -95.5,89.8 c-1.5,4 -2.8,8 -4.1,12.1 c-19.2,43.3 -31.9,71 -42.4,87.9 c-9.6,16.6 -15.9,21.7 -24.2,22.3 c-3.2,0 -3.8,-3.8 -3.8,-11.5 c0,-36.9 30.6,-122.3 39.5,-166.2 l0.6000000000000004,-7.6 c0,-17.2 -13.4,-26.7 -29.3,-26.7 c-7.6,0 -15.9,1.9 -23.6,7 c-17.8,12.1 -35.7,33.8 -49,50.3 c-12.7,16.6 -24.2,33.8 -34.4,49 c7.6,-26.8 16.6,-58.6 19.1,-72 l0.6000000000000004,-7.6 c0,-17.2 -13.4,-26.7 -29.3,-26.7 c-7.6,0 -15.9,1.9 -23.6,7 c-17.8,12.1 -36.3,33.8 -49,50.3 c-11.5,15.3 -22.3,30.6 -31.8,45.2 c8.9,-27.4 17.2,-54.1 28,-80.9 l0.6000000000000004,-2.5 c0,-10.2 -21,-19.1 -36.3,-19.1 c-8.3,0 -14,2.5 -15.9,7.6 c-10.8,28 -53.5,160.5 -53.5,198.7 v0.6000000000000004 c0.6000000000000004,14.7 21,17.8 36.3,17.8 h4.5 c3.8,0 7,-1.9 7,-6.4 c0.6000000000000004,-14.6 6.4,-39.5 14.6,-67.5 c8.9,-15.9 31.2,-53.5 56,-86 c1.9,-1.9 19.1,-24.2 29.9,-33.1 c3.2,-2.5 5.7,-3.8 7,-3.8 c1.3,0 1.9,0.6000000000000004 1.9,2.5 l-0.6000000000000004,4.5 c-7,24.2 -35.7,105.7 -40.1,149 l-0.6000000000000004,8.9 c0,21 10.2,31.8 34.4,31.8 h7 c3.8,0 7,-1.3 7,-7 v-1.3 c0,-10.2 7,-35.7 14.6,-65.6 c8.9,-15.9 31.2,-52.9 56.7,-86 c8.9,-12.1 19.1,-23.6 28.7,-32.5 c1.9,-1.9 4.5,-4.5 6.4,-4.5 c1.9,0 2.5,1.3 2.5,4.5 c-0.6000000000000004,7 -36.3,107.6 -38.2,150.3 v5.7 c0,31.2 16.6,36.9 38.8,36.9 l17.8,-0.6000000000000004 c12.1,-0.6000000000000004 21.7,-7.6 34.4,-28 c6.5,-10.9 14.1,-26 23.6,-46.4 c0,0.2 0,0.3000000000000002 0,0.5 c0,40.1 19.7,72 73.9,73.9 h7 c6.4,0 14,-0.6000000000000004 22.3,-3.2 c25.5,-8.9 60.5,-37.6 103.2,-126.7 c0.6000000000000004,-1.3 0.6000000000000004,-2.5 0.6000000000000004,-2.5 C844.6476298332215,649.2428544521332 843.4476298332214,647.2428544521332 841.4476298332214,646.6428544521332 zM720.4476298332214,626.9428544521331 c6.4,-8.9 26.7,-35.7 41.4,-35.7 c1.9,0 3.2,0 5.1,1.3 c1.9,1.3 3.2,3.2 3.2,7 c0,20.4 -36.3,76.4 -63.7,76.4 c-3.2,0 -6.4,-0.6000000000000004 -8.9,-2.5 C702.6476298332215,658.1428544521332 710.9476298332214,641.5428544521332 720.4476298332214,626.9428544521331 z" id="svg_2"/>
	
	<g id="svg_14" class="">
		<path class="st0" d="M332.14762983322146,417.54285445213316 c35.4,-7.7 46,-26.7 46,-48.8 c0,-28.5 -17.1,-50 -62.8,-50 h-21.1 h-22.7 h-23.4 h-19.9 V336.1428544521332 l20.2,2.5 c0.4,27.3 0.5,54.6 0.5,81.8 v9.4 c0,27.6 -0.1,54.8 -0.5,81.6 l-20.2,2.5 v17.4 h19.9 h23.4 h22.7 h10.7 c67.1,0 83.6,-32.6 83.6,-59.7 C388.54762983322144,442.54285445213316 372.3476298332214,423.04285445213316 332.14762983322146,417.54285445213316 zM303.4476298332214,337.34285445213317 c21.2,0 31,11.5 31,35.4 c0,25.6 -10.6,38.9 -33.4,38.9 h-7.6 c0,-25.1 0.1,-49.9 0.5,-74.3 H303.4476298332214 zM302.7476298332214,512.6428544521332 h-8.9 c-0.4,-27.4 -0.5,-55.1 -0.5,-83.8 h9.1 c26.8,0 39.6,12.9 39.6,42.3 C342.14762983322146,498.4428544521332 327.64762983322146,512.6428544521332 302.7476298332214,512.6428544521332 z" id="svg_15"/>
		<path class="st0" d="M516.9476298332214,513.2428544521332 h-50.6 c-0.4,-27 -0.5,-54.2 -0.5,-82.1 h29.4 l3.1,25.1 H514.0476298332214 v-69.7 h-15.6 l-3.3,25.5 h-29.2 c0,-25.3 0.1,-50.4 0.5,-75 h45.2 l5.4,37.4 h22.5 l-1.9,-55.7 h-70.9 h-23.4 h-23.4 h-19.9 V336.1428544521332 l20.2,2.5 c0.4,26.8 0.5,53.7 0.5,80.4 v12 c0,27.1 0,54 -0.4,80.4 l-20.3,2.5 v17.4 h19.9 h23.4 h23.4 h76.2 l1.9,-55.7 h-22.5 L516.9476298332214,513.2428544521332 z" id="svg_16"/>
		<path class="st0" d="M677.2476298332215,513.2428544521332 h-50.6 c-0.4,-27 -0.5,-54.2 -0.5,-82.1 h29.4 l3.1,25.1 h15.6 v-69.7 h-15.6 l-3.3,25.5 h-29.2 c0,-25.3 0.1,-50.4 0.5,-75 h45.2 l5.4,37.4 h22.5 l-1.9,-55.7 H627.0476298332214 h-23.4 h-23.4 h-19.9 V336.1428544521332 l20.2,2.5 c0.4,26.8 0.5,53.7 0.5,80.4 v12 c0,27.1 0,54 -0.4,80.4 l-20.3,2.5 v17.4 h19.9 h23.4 H627.0476298332214 h76.2 l1.9,-55.7 h-22.5 L677.2476298332215,513.2428544521332 z" id="svg_17"/>
		<path class="st0" d="M874.3476298332214,511.2428544521332 l-5.2,-35.9 c-4.1,-30.3 -12.8,-46.9 -43.2,-51.7 c36,-7 48.1,-29.4 48.1,-51.2 c0,-33.6 -23.5,-53.7 -65.9,-53.7 h-21.7 h-22.7 h-23.4 h-19.9 V336.1428544521332 l20.2,2.5 c0.4,26.8 0.5,53.7 0.5,80.4 v12 c0,27.1 0,54 -0.4,80.4 l-20.3,2.5 v17.4 h19.9 h46.1 h20.7 v-17.4 l-21,-2.6 c-0.4,-25.6 -0.5,-51.4 -0.5,-77.7 h9.8 c16.2,0 22.8,9.9 25.5,31.7 l5,37.6 c2.7,25.1 16.2,33.1 39.1,33.1 c12.4,0 16.7,-1.1 29.5,-4.6 v-17.4 L874.3476298332214,511.2428544521332 zM795.9476298332214,415.4428544521332 h-10.3 c0,-26.9 0,-52.7 0.5,-78.1 h11 c22,0 33.7,12.5 33.7,38.6 C830.9476298332214,396.7428544521332 822.7476298332215,415.4428544521332 795.9476298332214,415.4428544521332 z" id="svg_18"/>
	</g>
</g></svg>